<?xml version="1.0" encoding="utf-8"?>
<!-- Generator: Adobe Illustrator 16.0.0, SVG Export Plug-In . SVG Version: 6.00 Build 0)  -->
<!DOCTYPE svg PUBLIC "-//W3C//DTD SVG 1.1//EN" "http://www.w3.org/Graphics/SVG/1.1/DTD/svg11.dtd">
<svg version="1.1" id="Layer_1" xmlns="http://www.w3.org/2000/svg" xmlns:xlink="http://www.w3.org/1999/xlink" x="0px" y="0px"
	 width="746.055px" height="932.958px" viewBox="0 0 746.055 932.958" enable-background="new 0 0 746.055 932.958"
	 xml:space="preserve">
<g>
	<path fill="#CCE116" d="M328.6,0c30.6,0,61.2,0,91.8,0c1.202,0.176,2.4,0.477,3.606,0.508c22.45,0.606,44.8,2.45,67.032,5.601
		c5.066,0.718,10.217,1.453,15.062,3.009c18.724,6.013,31.144,23.417,31.34,43.453c0.08,8.262,0.016,16.525,0.018,24.789
		c0,1.188,0,2.376,0,3.593c0.989,0.128,1.531,0.214,2.076,0.265c11.889,1.117,23.812,1.952,35.66,3.405
		c23.141,2.837,46.27,5.811,69.349,9.114c26.637,3.813,49.513,15.453,68.164,34.847c19.378,20.149,30.783,44.099,32.791,72.228
		c0.069,0.973,0.366,1.929,0.557,2.893c0,69.688,0,139.375,0,209.062c-0.162,1.07-0.462,2.139-0.466,3.21
		c-0.086,25.349-0.178,50.697-0.191,76.046c-0.027,51.372-0.07,102.744,0.031,154.115c0.027,14.124-1.328,28.064-4.013,41.91
		c-7.13,36.773-22.825,69.608-45.603,99.175c-7.077,9.187-15.914,16.108-26.578,20.864c-20.986,9.358-41.857,18.978-62.773,28.496
		c-45.181,20.561-90.338,41.174-135.551,61.665c-16.257,7.368-32.591,14.54-48.39,22.899c-13.504,7.144-28.159,10.746-43.339,11.621
		c-19.439,1.121-38.089-2.689-55.376-11.651c-16.362-8.481-33.174-15.94-49.933-23.551
		c-65.714-29.844-131.369-59.815-197.097-89.629c-10.528-4.776-19.222-11.667-26.28-20.714c-9.091-11.65-17.021-24.061-23.844-37.16
		C10.35,718.759,1.317,685.475,0.892,650.156c-0.68-56.369-0.09-112.744-0.526-169.119c-0.688-88.891-0.22-177.791-0.079-266.686
		c0.013-7.778,0.702-15.64,1.963-23.316c8.203-49.971,48.595-89.673,98.695-97.204c14.783-2.222,29.579-4.427,44.424-6.177
		c18.95-2.235,37.955-4.002,56.937-5.97c2.95-0.306,5.902-0.603,8.979-0.917c0-1.595,0-2.817,0-4.039
		c0.001-8.265-0.053-16.529,0.015-24.793c0.174-21.1,14.735-39.741,35.442-43.864c13.099-2.607,26.482-3.966,39.801-5.227
		c12.883-1.22,25.847-1.589,38.772-2.356C326.415,0.422,327.505,0.168,328.6,0z M41.734,402.288c0.234,2.458,0.58,4.439,0.589,6.423
		c0.119,26.014,0.254,52.027,0.262,78.041c0.014,52.37-0.032,104.74-0.091,157.11c-0.013,11.974,0.864,23.864,3.078,35.634
		c5.23,27.803,17.012,52.77,33.147,75.795c4.95,7.064,11.322,12.478,19.326,16.059c21.888,9.796,43.73,19.695,65.507,29.733
		c60.067,27.688,120.615,54.322,180.389,82.653c19.746,9.359,39.712,8.96,59.457-0.449c5.236-2.494,10.396-5.153,15.67-7.563
		c41.492-18.96,82.999-37.889,124.51-56.808c34.305-15.633,68.567-31.361,102.971-46.775c8.748-3.92,15.896-9.436,21.319-17.205
		c23.167-33.189,36.167-69.615,36.01-110.514c-0.22-56.832,0.03-113.666,0.074-170.498c0.014-18.871-0.018-37.743,0.037-56.614
		c0.016-5.308-0.604-10.666,1.202-15.915c-0.765-0.266-1.267-0.502-1.795-0.615c-8.505-1.826-16.991-3.746-25.524-5.429
		c-22.774-4.491-45.685-8.176-68.74-10.863c-19.838-2.312-39.689-4.568-59.577-6.391c-17.114-1.568-34.273-2.782-51.438-3.627
		c-26.426-1.301-52.865-2.571-79.314-3.103c-46.895-0.942-93.795-0.658-140.651,1.793c-21.29,1.113-42.568,2.491-63.837,3.975
		c-24.162,1.684-48.235,4.311-72.266,7.359c-26.461,3.356-52.781,7.557-78.898,12.981C56.068,398.947,49.034,400.642,41.734,402.288
		z M468.2,186.274c0.236-0.023,0.473-0.046,0.709-0.069c7.404,49.332,14.518,98.708,21.559,148.339
		c11.737,0.973,23.246,1.927,34.96,2.898c9.382-48.258,18.714-96.198,28.46-144.055c0.216,0.029,0.432,0.058,0.647,0.087
		c-1.495,48.734-2.991,97.469-4.494,146.463c14.056,1.717,27.828,3.398,41.96,5.124c2.66-69.858,5.311-139.415,7.97-209.22
		c-22.528-3.073-44.748-5.646-67.234-7.732c-1.948,10.129-3.86,19.967-5.729,29.813c-1.873,9.863-3.699,19.735-5.556,29.603
		c-1.856,9.866-3.706,19.734-5.593,29.595c-1.87,9.78-3.456,19.619-6.095,29.263c-5.552-40.521-11.103-81.042-16.637-121.436
		c-12.236-1.598-63.802-3.987-67.395-3.104c-0.639,69.58-1.278,139.213-1.921,209.163c14.095,0.642,27.865,1.269,41.999,1.911
		c0.436-24.626,0.894-49.039,1.292-73.454C467.5,235.068,467.837,210.671,468.2,186.274z M284.122,123.053
		c1.006,69.623,2.013,139.326,3.023,209.271c15.508-0.579,30.624-1.144,45.988-1.718c0.255-25.224-0.541-50.158-0.395-75.289
		c7.791-0.152,15.146-0.343,22.501-0.426c7.48-0.084,14.962-0.072,22.442-0.084c7.321-0.013,14.642-0.003,22.234-0.003
		c0-17.056,0-33.855,0-50.933c-22.479,0-44.844,0-67.516,0c0-10.694,0-21.113,0-31.773c8.354-0.151,16.496-0.354,24.64-0.431
		c8.262-0.079,16.525-0.017,24.787-0.05c8.084-0.033,16.174,0.413,24.209,0.229c0.657-7.504,0.554-48.338-0.086-50.884
		C394.153,119.41,294.37,121.058,284.122,123.053z M176.071,184.634c1.726,52.43,3.434,104.353,5.15,156.562
		c15.539-1.59,30.685-3.138,45.973-4.701c-0.236-10.709-0.439-21.076-0.699-31.441c-0.263-10.49-0.595-20.979-0.873-31.468
		c-0.275-10.378-0.527-20.757-0.777-31.136c-0.254-10.49-0.601-20.98-0.706-31.473c-0.104-10.32-0.941-20.637-0.593-31.197
		c14.675-1.114,28.98-2.2,43.59-3.311c-0.317-17.668-0.629-35.027-0.94-52.339c-11.53-1.145-125.222,10.474-135.967,13.877
		c0.703,17.276,1.41,34.633,2.127,52.228C146.978,188.361,161.302,186.525,176.071,184.634z M359.315,69.885
		c6.728,0,13.17,0.286,19.571-0.096c4.638-0.277,7.285-3.662,8.554-7.876c2.138-7.104,2.154-14.316,0.004-21.415
		c-1.675-5.532-5.117-8.005-10.88-8.109c-5.125-0.092-10.253-0.014-15.38,0.023c-0.63,0.004-1.258,0.222-1.869,0.338
		C359.315,45.254,359.315,57.564,359.315,69.885z M402.935,58.118c2.793,0,5.022-0.084,7.242,0.022
		c2.367,0.115,3.161,0.84,3.506,3.192c0.226,1.538,0.162,3.116,0.281,4.671c0.118,1.523,0.304,3.042,0.48,4.766
		c2.998,0,5.712,0,8.254,0c-0.287-3.803-0.645-7.461-0.813-11.128c-0.12-2.611-0.504-5.072-2.432-7.11
		c3.75-3.088,3.901-7.215,3.466-11.402c-0.571-5.498-3.189-7.902-8.752-8.111c-5.239-0.196-10.486-0.209-15.729-0.295
		c-1.085-0.018-2.17-0.003-3.592-0.003c0,12.626,0,24.945,0,37.433c2.623,0.216,5.207,0.562,8.089-0.172
		C402.935,65.986,402.935,62.121,402.935,58.118z M480.658,36.648c-0.128,1.543-0.283,2.739-0.316,3.939
		c-0.156,5.688-0.234,11.38-0.438,17.066c-0.063,1.772-0.259,3.577-0.696,5.289c-0.571,2.239-2.127,3.275-4.429,3.362
		c-3.383,0.128-5.503-1.562-6.021-4.96c-0.2-1.312-0.183-2.671-0.155-4.006c0.118-6.025,0.287-12.049,0.412-18.072
		c0.024-1.166-0.063-2.333-0.101-3.524c-2.947-0.177-5.45-0.538-7.929-0.207c-0.133,0.638-0.25,0.955-0.257,1.274
		c-0.174,7.698-0.364,15.396-0.477,23.094c-0.022,1.553,0.121,3.135,0.415,4.66c0.895,4.647,3.488,7.903,8.127,9.278
		c1.382,0.409,2.818,0.684,4.248,0.869c9.129,1.186,14.379-3.129,14.97-12.253c0.015-0.224,0.022-0.446,0.029-0.67
		c0.217-7.026,0.437-14.053,0.645-21.079c0.031-1.081,0.004-2.164,0.004-3.597C485.87,36.95,483.372,36.806,480.658,36.648z
		 M334.524,64.57c3.694,0,7.12,0,10.609,0c0.592,1.922,1.169,3.795,1.704,5.533c2.976,0,5.62,0,8.716,0
		c-3.668-12.647-7.249-24.992-10.766-37.116c-3.725,0-6.92,0-10.265,0c-3.462,12.581-7.011,24.95-10.282,37.888
		c3.286-0.145,6.011-0.266,8.667-0.383C333.488,68.369,333.952,66.666,334.524,64.57z M456.479,72.217
		c-3.304-12.732-6.54-25.209-9.828-37.883c-3.551,0-6.828,0-10.297,0c-3.703,12.167-7.39,24.275-11.172,36.701
		c3.157,0.144,5.89,0.268,8.691,0.396c0.653-2.062,1.215-3.834,1.857-5.861c3.63,0.205,7.126,0.401,10.539,0.594
		c0.604,2.26,1.087,4.064,1.619,6.053C450.72,72.217,453.362,72.217,456.479,72.217z M279.72,35.32
		c-3.258,0.16-6.094,0.301-9.038,0.446c-1.843,8.771-3.61,17.188-5.379,25.606c-0.253,0.006-0.506,0.013-0.759,0.019
		c-2.224-8.173-4.446-16.345-6.719-24.696c-3.141,0.301-5.956,0.569-9.022,0.863c4.121,12.465,8.097,24.488,12.111,36.631
		c3.03-0.229,5.78-0.436,8.705-0.655C272.964,60.879,276.283,48.321,279.72,35.32z M298.565,34.154
		c0.25,12.768,0.49,25.066,0.735,37.6c7.921-0.338,15.44-0.658,22.979-0.98c0-2.972,0-5.584,0-8.232c-5.07,0-9.901,0-15.096,0
		c0-3.334,0.014-6.437-0.004-9.539c-0.018-3.233-0.021-6.467-0.113-9.697c-0.087-3.058,0.216-6.151-0.378-9.15
		C303.913,34.154,301.487,34.154,298.565,34.154z M292.2,72.221c-0.244-12.772-0.478-25.004-0.709-37.111c-2.964,0-5.556,0-8.316,0
		c0.274,12.635,0.539,24.867,0.804,37.111C286.831,72.221,289.338,72.221,292.2,72.221z"/>
	<path fill-rule="evenodd" clip-rule="evenodd" fill="#CCE116" d="M371.558,479.601c-2.092,0-3.73,0-5.37,0
		c-1.644,0-3.286,0-5.105,0c0-2.849,0-5.263,0-8.159c3.124-0.225,6.288-0.451,9.931-0.713c0.268-3.61,0.534-7.215,0.818-11.047
		c2.769,0,5.361,0,8.166,0c0.285,3.695,0.559,7.221,0.853,11.021c3.588,0.23,6.988,0.448,10.558,0.677c0,2.668,0,5.059,0,7.842
		c-3.544,0-6.946,0-10.655,0c-0.071,3.478-0.268,6.582-0.166,9.676c0.151,4.68,2.55,8.156,6.147,11.016
		c7.078,5.628,14.133,11.289,21.088,17.069c10.132,8.421,20.166,16.961,30.244,25.448c0.768,0.647,1.551,1.277,2.318,1.926
		c1.842,1.553,3.798,1.877,5.799,0.385c2.632-1.963,5.009-1.332,7.281,0.585c4.182,3.528,8.343,7.08,12.514,10.62
		c24.344,20.669,48.686,41.338,73.038,61.997c0.915,0.777,1.92,1.45,3.089,2.325c21.088-16.436,42.021-32.749,63.034-49.125
		c0.79,0.469,1.479,0.805,2.091,1.25c20.757,15.115,41.507,30.24,62.256,45.367c0.902,0.657,1.774,1.355,2.684,2.004
		c2.537,1.808,3.781,4.096,3.715,7.373c-0.17,8.371-0.127,16.748-0.036,25.121c0.179,16.535-3.292,32.331-9.243,47.682
		c-5.038,12.998-11.702,25.021-20.31,36.026c-6.293,8.046-14.095,13.813-23.455,17.788c-18.891,8.022-37.711,16.209-56.533,24.391
		c-44.706,19.433-89.388,38.922-134.1,58.342c-10.026,4.354-20.136,8.516-30.206,12.768c-20.285,8.564-40.632,8.606-60.817-0.084
		c-48.872-21.039-97.676-42.238-146.499-63.391c-21.393-9.268-42.62-18.938-64.194-27.758c-17.2-7.033-30.005-18.547-39.219-34.428
		c-11.741-20.241-19.762-41.706-21.474-65.241c-0.291-4.003-0.476-8.018-0.6-12.03c-0.104-3.318,1.214-6.024,3.738-8.23
		c17.403-15.209,34.79-30.439,52.152-45.696c1.957-1.721,3.934-2.638,6.664-2.11c3.481,0.673,6.924-0.008,10.116-1.508
		c2.417-1.135,4.729-2.502,7.048-3.835c2.128-1.223,4.157-2.62,6.309-3.796c4.749-2.598,9.575-2.688,14.404-0.168
		c0.989,0.516,1.964,1.06,2.941,1.597c16.528,9.075,33.066,18.132,49.576,27.24c4.482,2.473,9.382,3.489,14.319,4.42
		c2.221,0.419,3.872-0.846,5.388-2.169c3.447-3.012,6.825-6.104,10.223-9.172c38.195-34.51,76.364-69.051,114.628-103.486
		c3.648-3.283,5.364-6.912,4.896-11.772C371.356,485.117,371.558,482.556,371.558,479.601z M528.743,634.024
		c-0.842-0.796-1.374-1.348-1.955-1.841c-25.268-21.465-50.553-42.908-75.787-64.412c-2.369-2.02-4.676-2.736-7.644-1.516
		c-2.581,1.062-5.036,0.447-7.22-1.262c-0.967-0.756-1.961-1.479-2.904-2.266c-18.017-14.996-36.026-30.001-54.042-44.999
		c-0.835-0.694-1.711-1.34-2.685-2.099c-4.257,3.921-8.338,7.68-12.602,11.605c8.607,10.92,17.068,21.653,25.69,32.592
		c-3.955,1.066-7.423,2-11.223,3.023c29.479,46.911,58.651,93.337,88.023,140.08C487.335,679.789,507.916,657.043,528.743,634.024z
		 M417.312,793.666c3.685-3.13,4.445-4.044,4.761-7.051c0.483-4.607-0.207-9.114-1.713-13.49c-0.179-0.521-0.489-1.002-0.779-1.477
		c-0.72-1.181-1.77-1.915-3.066-1.142c-2.191,1.307-3.998,0.499-5.906-0.601c-1.931-1.113-3.949-2.074-5.926-3.107
		c-2.243-1.174-4.481-2.356-6.321-3.324c-0.228-4.54-0.356-8.55-0.643-12.549c-0.638-8.899-1.094-17.823-2.143-26.675
		c-0.56-4.723-2.245-9.306-3.337-13.973c-1.296-5.538-0.031-8.042,5.121-10.396c2.535-1.158,5.144-2.17,7.609-3.459
		c4.638-2.424,5.083-4.379,1.59-8.236c-4.193-4.632-8.634-9.041-13.002-13.513c-0.774-0.793-1.696-1.45-2.589-2.118
		c-3.885-2.91-8.242-3.791-12.986-2.973c-0.724,0.125-1.452,0.223-2.662,0.407c0.159-3.054,0.295-5.81,0.45-8.564
		c0.094-1.667,0.349-3.336,0.298-4.997c-0.099-3.198-1.684-5.457-4.662-6.726c-4.004-1.706-7.833-1.499-11.436,1.028
		c-2.987,2.096-5.23,4.794-6.589,8.358c1.78,2.315,3.557,4.601,5.306,6.906c2.03,2.677,3.872,5.445,4.85,8.726
		c0.593,1.986,0.767,3.874,0.1,5.896c-0.768,2.326-1.354,4.718-1.919,7.104c-1.408,5.942-1.879,11.853,0.122,17.823
		c0.564,1.684,0.268,3.656,0.367,5.518c-7.351-0.149-9.614,1.664-8.534,6.551c4.055,0.72,7.657-1.681,11.641-2.001
		c1.012,6.221,1.223,12.165-1.062,17.984c-0.527,1.345-0.814,2.781-1.243,4.166c-2.899,9.356-4.267,18.839-3.593,28.706
		c0.786,11.492-0.431,22.976-1.299,34.437c-0.399,5.278-3.717,8.162-8.962,8.599c-2.173,0.18-4.308,0.828-6.505,1.272
		c1.799,5.29,2.459,6.119,7.033,7.669c4.749,1.607,9.599,2.918,14.344,4.539c1.998,0.683,3.424,0.344,4.703-1.363
		c-2.535-6.649-2.363-13.57-1.746-20.484c0.615-6.884,1.477-13.746,2.238-20.616c0.222-1.993,0.396-3.996,0.729-5.972
		c1.473-8.732,5.408-16.481,9.75-24.057c0.124-0.217,0.539-0.268,0.89-0.428c0.36,0.905,0.693,1.73,1.018,2.559
		c2.237,5.713,4.568,11.391,6.675,17.15c1.503,4.109,4.308,6.065,8.603,6.088c1.004,0.006,2.012,0.049,3.011,0.14
		c7.688,0.694,11.531,3.775,13.56,11.202C414.162,789.79,415.511,791.816,417.312,793.666z M233.325,634.278
		c-1.689-0.715-2.901-1.266-4.141-1.744c-10.623-4.099-20.958-8.804-30.907-14.36c-9.832-5.492-19.724-10.877-29.593-16.302
		c-0.977-0.537-1.974-1.036-2.97-1.537c-2.131-1.073-4.188-1.126-6.36,0.077c-4.583,2.537-9.245,4.934-13.861,7.411
		c-0.861,0.463-1.664,1.034-2.648,1.653c2.275,4.303,4.349,8.501,6.68,12.551c2.333,4.056,4.658,8.164,7.477,11.878
		c2.883,3.8,6.11,7.423,9.646,10.616c3.41,3.078,7.405,5.508,11.252,8.301c-0.633,0.562-1.231,1.048-1.779,1.585
		c-2.629,2.581-2.738,4.331-0.473,7.282c0.271,0.354,0.552,0.705,0.862,1.023c7.257,7.407,11.354,16.439,13.565,26.432
		c1.928,8.704,3.822,17.416,5.752,26.119c0.151,0.681,0.476,1.322,0.949,2.604C209.097,689.691,221.145,662.137,233.325,634.278z
		 M653.121,689.727c0.263-0.02,0.524-0.04,0.788-0.06c0.84-4.009,2.232-7.991,2.421-12.03c0.657-14.143,0.789-28.31,1.374-42.457
		c0.159-3.854-1.28-6.186-4.371-8.256c-15.377-10.299-30.65-20.752-45.964-31.145c-0.913-0.619-1.861-1.185-2.952-1.876
		c-4.769,3.605-9.463,7.154-14.779,11.173c0.913,0.582,1.633,0.93,2.223,1.432c7.993,6.782,15.987,13.562,23.936,20.398
		c2.277,1.959,4.521,3.983,6.578,6.169c2.82,2.998,4.559,6.631,5.012,10.736c0.672,6.095,3.227,11.315,7.07,15.968
		c7.279,8.812,13.476,18.293,17.973,28.838C652.597,689.014,652.888,689.357,653.121,689.727z"/>
	<path fill-rule="evenodd" clip-rule="evenodd" fill="#CCE116" d="M117.186,446.304c-0.331-2.532-0.564-4.733-0.918-6.915
		c-0.424-2.621-0.854-2.9-3.57-2.605c-0.887,0.096-1.774,0.205-2.651,0.361c-0.543,0.098-1.069,0.297-1.762,0.497
		c0,3.192,0,6.378,0,9.981c-2.44,0.44-5.015,0.905-8.02,1.448c-0.68-10.901-1.344-21.523-2.022-32.409
		c1.884-0.371,3.593-0.756,5.318-1.041c4.29-0.707,8.579-1.42,12.883-2.034c4.47-0.639,6.755,0.938,7.739,5.342
		c0.806,3.606,0.725,7.108-1.958,10.267c3.499,3.852,1.878,9.088,3.931,13.589c2.284-10.454,4.567-20.907,6.913-31.647
		c3.431-0.479,6.798-0.95,10.407-1.455c3.574,10.424,7.072,20.621,10.713,31.238c-3.077,0.454-5.88,0.868-8.79,1.298
		c-0.497-1.341-0.912-2.461-1.398-3.773c-2.872,0.402-5.603,0.784-8.444,1.183c-0.322,1.279-0.616,2.445-1.025,4.07
		C128.935,444.538,123.17,445.404,117.186,446.304z M107.258,423.445c0.095,1.992,0.177,3.723,0.273,5.751
		c2.341-0.372,4.339-0.562,6.268-1.036c1.609-0.396,2.142-1.779,1.765-3.779c-0.307-1.63-0.971-2.118-2.902-1.874
		C110.923,422.727,109.203,423.101,107.258,423.445z M141.846,430.654c-0.963-3.232-1.791-6.01-2.619-8.788
		c-0.245,0.028-0.49,0.056-0.734,0.083c-0.524,3.031-1.049,6.062-1.651,9.543C138.728,431.177,140.088,430.949,141.846,430.654z"/>
	<path fill-rule="evenodd" clip-rule="evenodd" fill="#CCE116" d="M446.625,395.251c4.265,0.221,7.928,0.41,12.016,0.622
		c0.991,5.686,1.972,11.305,2.952,16.925c0.229,0.017,0.459,0.034,0.688,0.051c1.183-5.449,2.364-10.899,3.596-16.569
		c3.944,0.205,7.69,0.4,11.879,0.619c-0.213,10.817-0.423,21.461-0.638,32.396c-2.643,0.259-5.013,0.1-7.487-0.493
		c0-6.722,0-13.385,0-20.774c-2.22,7.129-2.97,13.952-4.929,20.74c-2.035-0.096-3.99-0.188-6.235-0.293
		c-1.192-6.746-2.351-13.3-3.633-20.549c-1.078,2.665-0.624,4.818-0.753,6.885c-0.133,2.115-0.094,4.241-0.108,6.363
		c-0.015,2.209-0.003,4.419-0.003,6.74c-2.659,0-4.934,0-7.345,0C446.625,417.02,446.625,406.379,446.625,395.251z"/>
	<path fill-rule="evenodd" clip-rule="evenodd" fill="#CCE116" d="M639.989,431.248c0.341-5.316,0.681-10.632,1.046-16.344
		c2.694,0.428,5.166,0.82,8.061,1.28c-0.639,10.759-1.271,21.39-1.925,32.409c-2.941-0.421-5.59-0.631-8.136-1.262
		c-0.829-0.205-1.627-1.406-2.028-2.33c-1.909-4.393-3.672-8.849-5.498-13.277c-0.372-0.902-0.798-1.781-1.756-2.625
		c-0.359,5.445-0.719,10.891-1.098,16.615c-2.685-0.383-5.072-0.724-7.898-1.127c0.293-10.852,1.225-21.537,1.624-32.57
		c3.507,0.531,6.561,0.993,9.769,1.479c2.398,6.011,4.776,11.964,7.153,17.918C639.532,431.359,639.761,431.303,639.989,431.248z"/>
	<path fill-rule="evenodd" clip-rule="evenodd" fill="#CCE116" d="M513.557,399.417c3.195,0.284,6.173,0.55,9.364,0.835
		c2.513,5.755,5.032,11.527,7.552,17.301c0.237-0.032,0.476-0.064,0.714-0.098c0.216-5.269,0.433-10.537,0.657-16.023
		c2.691-0.361,5.156,0.043,8.062,0.51c-0.372,10.77-0.738,21.397-1.118,32.428c-3.279-0.286-6.226-0.543-9.275-0.809
		c-2.663-5.909-5.263-11.68-7.862-17.449c-0.215,0.01-0.43,0.02-0.645,0.028c-0.132,2.651-0.263,5.304-0.396,7.954
		c-0.14,2.762-0.28,5.523-0.436,8.572c-2.63-0.21-5.027-0.4-7.389-0.589C512.175,429.799,512.776,403.396,513.557,399.417z"/>
	<path fill-rule="evenodd" clip-rule="evenodd" fill="#CCE116" d="M266.728,429.926c-2.676,0.131-5.074,0.248-7.899,0.386
		c-0.278-10.945-0.549-21.589-0.828-32.574c3.431-0.209,6.505-0.396,9.714-0.591c2.906,5.505,5.732,10.855,8.558,16.207
		c0.161-0.065,0.324-0.131,0.486-0.196c0-5.386,0-10.771,0-16.505c2.558-0.203,5.06-0.402,8.024-0.639
		c0.179,10.954,0.353,21.615,0.533,32.654c-2.892,0.194-5.632,0.488-8.369,0.477c-0.613-0.002-1.408-0.969-1.801-1.671
		c-2.178-3.89-4.25-7.838-6.375-11.758c-0.516-0.952-1.094-1.87-2.043-3.483C266.728,418.475,266.728,423.941,266.728,429.926z"/>
	<path fill-rule="evenodd" clip-rule="evenodd" fill="#CCE116" d="M225.742,415.112c0.597-2.926,0.929-5.938,1.853-8.757
		c1.34-4.091,4.348-6.75,8.591-7.596c2.595-0.517,5.301-0.741,7.946-0.674c4.398,0.111,7.72,2.315,9.338,6.414
		c2.67,6.767,2.83,13.687,0.234,20.537c-1.25,3.297-3.675,5.523-7.061,6.628c-3.221,1.05-6.536,1.431-9.889,1.035
		c-4.221-0.497-7.189-2.762-8.823-6.723C226.505,422.519,226.099,418.89,225.742,415.112z M246.523,415.922
		c-0.279-1.943-0.368-3.737-0.819-5.435c-0.772-2.898-2.48-4.253-4.86-4.202c-2.4,0.053-4.371,1.492-5.062,4.105
		c-0.926,3.498-0.868,7.047,0.247,10.52c0.67,2.087,2.035,3.408,4.349,3.506c2.433,0.104,4.281-0.993,5.124-3.441
		C246.069,419.324,246.214,417.527,246.523,415.922z"/>
	<path fill-rule="evenodd" clip-rule="evenodd" fill="#CCE116" d="M354.449,426.162c0-10.692,0-21.312,0-32.376
		c2.058,0,4.032,0.001,6.007,0c3.785-0.002,7.577-0.151,11.354,0.028c4.795,0.228,7.673,2.484,8.918,7.13
		c1.613,6.022,1.614,12.146-0.084,18.151c-1.373,4.855-4.496,7.074-9.6,7.186c-4.786,0.105-9.575,0.11-14.363,0.134
		C356.03,426.419,355.379,426.271,354.449,426.162z M362.881,418.104c1.822,0,3.465,0.069,5.099-0.017
		c2.248-0.118,3.736-1.355,4.371-3.485c0.908-3.049,0.905-6.139-0.013-9.184c-0.553-1.833-1.759-3.165-3.745-3.332
		c-1.843-0.154-3.709-0.033-5.712-0.033C362.881,407.509,362.881,412.664,362.881,418.104z"/>
	<path fill-rule="evenodd" clip-rule="evenodd" fill="#CCE116" d="M337.792,403.878c-3.107,0-5.992,0-8.952,0
		c-2.063-2.763-3.547-3.449-5.887-2.743c-1.061,0.321-1.794,0.859-1.858,2.052c-0.073,1.34,0.863,1.688,1.893,1.894
		c2.84,0.568,5.688,1.094,8.529,1.66c5.23,1.043,7.628,3.944,7.72,9.309c0.112,6.619-3.06,10.384-9.62,11.543
		c-3.562,0.63-7.104,0.706-10.625-0.146c-4.729-1.144-7.139-4.547-6.857-9.833c3.072,0,6.166,0,9.624,0
		c0.663,2.447,2.746,2.821,5.149,2.375c1.346-0.25,2.222-1.077,2.195-2.528c-0.024-1.307-0.825-1.983-2.072-2.228
		c-2.842-0.557-5.667-1.211-8.523-1.683c-3.539-0.584-5.449-2.681-6.242-6.077c-1.716-7.343,1.661-12.744,9.137-13.744
		c3.131-0.418,6.483-0.181,9.589,0.463C335.614,395.148,337.919,398.677,337.792,403.878z"/>
	<path fill-rule="evenodd" clip-rule="evenodd" fill="#CCE116" d="M565.776,427.66c0.758-0.055,1.191-0.152,1.607-0.106
		c2.652,0.296,5.302,0.623,8.154,0.964c0.518,2.405,2.189,3.451,4.535,3.549c1.34,0.056,2.488-0.303,2.792-1.797
		c0.283-1.395-0.318-2.393-1.664-2.877c-2.409-0.869-4.825-1.717-7.242-2.561c-6.77-2.363-9.393-8.719-6.3-15.229
		c1.023-2.155,2.669-3.627,4.96-4.132c5.457-1.204,10.683-0.346,15.445,2.52c3.328,2.002,4.637,5.242,4.562,9.547
		c-3.092-0.329-6.023-0.641-9.086-0.967c-0.282-0.459-0.576-0.904-0.838-1.367c-1.172-2.074-3.078-3.035-5.268-2.425
		c-0.621,0.174-1.315,0.821-1.565,1.423c-0.377,0.904,0.035,1.741,1.047,2.125c0.728,0.277,1.454,0.561,2.188,0.821
		c2.622,0.935,5.256,1.838,7.868,2.796c3.889,1.427,5.92,4.36,6.09,8.373c0.088,2.063-0.313,4.225-0.902,6.221
		c-0.819,2.78-2.948,4.437-5.76,5.029c-5.307,1.12-10.455,0.407-15.301-1.928C567.142,435.73,565.7,432.26,565.776,427.66z"/>
	<path fill-rule="evenodd" clip-rule="evenodd" fill="#CCE116" d="M480.39,413.082c0.272-1.849,0.436-4.548,1.097-7.118
		c1.544-6.001,5.446-8.966,11.668-9.012c1.998-0.015,4.033,0.177,5.989,0.574c5.073,1.029,8.317,4.187,9.638,9.151
		c1.403,5.28,1.297,10.635-0.036,15.906c-1.576,6.23-5.42,9.087-11.884,9.111c-0.893,0.003-1.786-0.05-2.677-0.106
		c-8-0.503-12.482-4.709-13.432-12.665C480.555,417.265,480.539,415.584,480.39,413.082z M501.032,414.004
		c-0.464-1.865-0.768-3.973-1.527-5.899c-0.815-2.067-2.66-2.86-4.881-2.778c-2.034,0.076-3.371,1.167-4.055,2.955
		c-1.524,3.989-1.65,8.052-0.065,12.053c0.815,2.06,2.512,3.063,4.723,3.105c2.104,0.039,3.76-1.037,4.504-3.305
		C500.347,418.256,500.573,416.249,501.032,414.004z"/>
	<path fill-rule="evenodd" clip-rule="evenodd" fill="#CCE116" d="M597.011,408.465c7.756,1.075,14.906,2.066,22.206,3.079
		c0.767,2.557,0.13,5.042,0.043,7.893c-4.761-0.629-9.329-1.233-14.162-1.872c-0.113,1.398-0.21,2.579-0.333,4.096
		c4.441,0.684,8.683,1.336,13.299,2.046c-0.133,2.519-0.258,4.917-0.406,7.732c-4.402-0.574-8.533-1.112-13.051-1.702
		c-0.183,1.377-0.351,2.642-0.579,4.359c4.707,0.733,9.275,1.445,13.941,2.173c0,2.586,0,5.072,0,7.841
		c-7.688-1.082-15.026-2.115-22.551-3.175C595.952,430.043,596.469,419.505,597.011,408.465z"/>
	<path fill-rule="evenodd" clip-rule="evenodd" fill="#CCE116" d="M385.065,394.061c7.602,0,14.912,0,22.424,0
		c0,2.638,0,5.029,0,7.702c-4.583,0-9.096,0-13.943,0c-0.071,1.419-0.13,2.581-0.212,4.21c4.389,0,8.559,0,12.968,0
		c0,2.838,0,5.231,0,7.93c-4.145,0-8.33,0-12.773,0c0,1.648,0,2.998,0,4.803c4.694,0,9.207,0,13.834,0c0,2.834,0,5.218,0,7.612
		c-7.509,0-14.803,0-22.297,0C385.065,415.438,385.065,404.903,385.065,394.061z"/>
	<path fill-rule="evenodd" clip-rule="evenodd" fill="#CCE116" d="M223.972,413.451c0,2.784,0,5.101,0,7.729
		c-3.818,0.418-7.648,0.838-11.713,1.283c0,1.995-0.033,3.855,0.009,5.714c0.043,1.88,0.159,3.757,0.26,6.005
		c-2.788,0.304-5.388,0.587-8.362,0.911c-0.409-10.905-0.806-21.456-1.217-32.402c7.149-1.065,14.188-1.613,21.547-2.149
		c0,2.658,0,5.055,0,7.748c-4.109,0.431-8.289,0.869-12.618,1.322c0,1.553,0,2.953,0,4.742
		C215.915,414.052,219.748,413.766,223.972,413.451z"/>
	<path fill-rule="evenodd" clip-rule="evenodd" fill="#CCE116" d="M677.138,421.047c-1.027,2.059-1.903,3.838-2.801,5.606
		c-1.764,3.476-3.372,7.044-5.352,10.392c-2.227,3.763-3.275,7.738-3.279,12.06c0,0.759-0.154,1.519-0.281,2.673
		c-2.744-0.465-5.308-0.899-8.01-1.357c0-0.842-0.07-1.393,0.012-1.92c0.777-5.095-0.201-9.912-1.95-14.703
		c-1.755-4.806-3.188-9.729-4.747-14.605c-0.231-0.727-0.387-1.477-0.721-2.775c3.347,0.523,6.335,0.991,9.387,1.469
		c1.051,4.237,2.039,8.221,3.167,12.766c2.354-3.727,3.097-7.692,5.153-11.284C670.76,419.909,673.778,420.447,677.138,421.047z"/>
	<path fill-rule="evenodd" clip-rule="evenodd" fill="#CCE116" d="M549.314,411.128c-2.769-0.354-5.061-0.647-7.453-0.954
		c0-2.68,0-5.189,0-8.156c8.056,0.855,15.853,1.684,23.806,2.528c0,2.739,0,5.245,0,8.154c-2.595-0.219-4.971-0.419-7.795-0.657
		c-0.37,8.089-0.733,16.024-1.109,24.257c-2.809-0.301-5.329-0.569-8.244-0.882C548.782,427.379,549.043,419.421,549.314,411.128z"
		/>
	<path fill-rule="evenodd" clip-rule="evenodd" fill="#CCE116" d="M96.039,416.86c0.248,2.814,0.462,5.23,0.707,8.006
		c-2.603,0.548-5.046,1.062-7.825,1.647c0.461,7.975,0.92,15.932,1.396,24.171c-2.753,0.479-5.236,0.91-8.189,1.424
		c-0.569-8.035-1.123-15.861-1.704-24.063c-2.583,0.343-4.959,0.658-7.692,1.021c-0.218-2.686-0.42-5.186-0.647-8.002
		C80.071,419.663,87.832,418.301,96.039,416.86z"/>
	<path fill-rule="evenodd" clip-rule="evenodd" fill="#CCE116" d="M310.584,403.1c-2.422,0.145-4.726,0.281-7.28,0.433
		c0,8.078,0,16.048,0,24.329c-2.764,0-5.27,0-8.118,0c-0.193-7.759-0.391-15.621-0.594-23.757c-2.634,0-5.03,0-7.685,0
		c0-2.779,0-5.278,0-8.114c7.828-0.361,15.58-0.721,23.677-1.095C310.584,397.649,310.584,400.144,310.584,403.1z"/>
	<path fill-rule="evenodd" clip-rule="evenodd" fill="#CCE116" d="M431.659,418.561c0,3.144,0,5.777,0,8.776
		c-7.049-0.205-13.9-0.404-20.717-0.603c-0.725-2.514-0.735-28.101-0.028-32.403c2.577,0,5.169,0,8.046,0c0,7.996,0,15.733,0,23.673
		C423.311,418.194,427.389,418.373,431.659,418.561z"/>
	<path fill-rule="evenodd" clip-rule="evenodd" fill="#CCE116" d="M166.688,406.634c2.811-0.351,5.322-0.663,8.322-1.038
		c0.387,7.898,0.766,15.606,1.162,23.683c4.408-0.452,8.542-0.877,12.998-1.335c0,3.049,0,5.682,0,8.749
		c-6.748,0.798-13.647,1.615-20.993,2.484C167.678,428.247,167.195,417.716,166.688,406.634z"/>
	<path fill-rule="evenodd" clip-rule="evenodd" fill="#CCE116" d="M163.803,439.668c-2.748,0.385-5.239,0.732-7.692,1.075
		c-0.821-2.089-2.372-28.031-1.951-32.521c2.526-0.318,5.124-0.646,8.077-1.018C162.765,418.148,163.276,428.77,163.803,439.668z"/>
	<path fill-rule="evenodd" clip-rule="evenodd" fill="#CCE116" d="M367.646,40.92c2.285,0,4.278-0.05,6.268,0.013
		c2.739,0.085,4.7,1.466,5.536,4.042c1.409,4.351,1.372,8.773-0.179,13.083c-0.816,2.27-2.535,3.6-5.087,3.591
		c-2.098-0.009-4.195-0.002-6.538-0.002C367.646,54.728,367.646,48.022,367.646,40.92z"/>
	<path fill-rule="evenodd" clip-rule="evenodd" fill="#CCE116" d="M403.099,49.541c0-3.021,0-5.334,0-7.83
		c2.949-0.613,5.817-0.32,8.643-0.062c1.743,0.159,2.653,1.906,2.56,4.11c-0.096,2.252-1.073,3.641-3.001,3.745
		C408.661,49.648,406.01,49.541,403.099,49.541z"/>
	<path fill-rule="evenodd" clip-rule="evenodd" fill="#CCE116" d="M336.409,56.326c1.006-4.366,1.98-8.601,2.956-12.834
		c0.189,0.004,0.379,0.007,0.568,0.011c1.032,4.15,2.065,8.302,3.189,12.823C340.818,56.326,338.806,56.326,336.409,56.326z"/>
	<path fill-rule="evenodd" clip-rule="evenodd" fill="#CCE116" d="M444.547,58.174c-2.481-0.171-4.425-0.305-6.766-0.466
		c1.034-4.484,2.037-8.663,3.892-12.678C442.589,49.22,443.505,53.41,444.547,58.174z"/>
</g>
</svg>
